Coordinates
version=1
nRows=20
nColumns=32
inDegrees=yes

Units are S.I. units (second, meters, Newtons, ...)
If the header above contains a line with 'inDegrees', this indicates whether rotational values are in degrees (yes) or radians (no).

endheader
time	pelvis_tilt	pelvis_list	pelvis_rotation	pelvis_tx	pelvis_ty	pelvis_tz	hip_flexion_r	hip_adduction_r	hip_rotation_r	knee_angle_r	knee_adduction_r	med_cond_adduction_r	lat_cond_adduction_r	patella_r_constrained_knee_angle	hip_flexion_l	hip_adduction_l	hip_rotation_l	knee_angle_l	knee_adduction_l	med_cond_adduction_l	lat_cond_adduction_l	patella_l_constrained_knee_angle	lumbar_extension	lumbar_bending	lumbar_rotation	ankle_angle_r	subtalar_angle_r	mtp_angle_r	ankle_angle_l	subtalar_angle_l	mtp_angle_l
      0.74500000	     -6.75180867	     -2.17319166	     -3.86431409	      0.18951120	      0.86440593	      0.19316195	     18.21846522	      5.96372233	      4.37855468	    -20.30430272	      2.63544046	     -0.00000000	     -0.00000000	     -0.35437693	     33.04999948	     -7.54263110	      2.43579109	    -64.40468531	      7.77198912	     -0.00000000	     -0.00000000	     -1.12407381	    -11.21452031	      4.85728774	      4.51315316	      8.83339257	      5.58537445	     -0.00000000	     -4.50797726	     15.85158029	      0.00000000
      0.75000000	     -6.72626259	     -2.09503116	     -4.04272019	      0.19562480	      0.86502534	      0.19329482	     17.46751082	      5.81970514	      4.29234942	    -19.91637849	      2.60172347	     -0.00000000	     -0.00000000	     -0.34760638	     33.61508510	     -7.57895214	      2.40888138	    -63.68503855	      7.94223054	      0.00000000	      0.00000000	     -1.11151361	    -11.31407584	      4.78657853	      4.55617143	      9.09419392	      6.08405577	      0.00000000	     -4.10156292	     15.47479217	     -0.00000000
      0.75500000	     -6.80586369	     -1.96943939	     -4.20972138	      0.20175465	      0.86545791	      0.19335681	     16.86626280	      5.60030763	      4.04372652	    -19.57914685	      2.55306798	     -0.00000000	     -0.00000000	     -0.34172058	     34.25609516	     -7.52684635	      2.41067458	    -62.87358134	      8.08602018	      0.00000000	      0.00000000	     -1.09735101	    -11.26686341	      4.65661781	      4.86884498	      9.38873671	      6.71949486	      0.00000000	     -2.97371269	     15.67307135	      0.00000000
      0.76000000	     -6.82515721	     -1.89559022	     -4.37011375	      0.20787724	      0.86591392	      0.19340916	     16.15678776	      5.43603028	      3.88094080	    -19.16736337	      2.52969331	      0.00000000	      0.00000000	     -0.33453360	     34.80099625	     -7.53590533	      2.43369334	    -61.98036729	      8.25225113	      0.00000000	      0.00000000	     -1.08176148	    -11.32630226	      4.60734070	      4.89303947	      9.70446946	      7.35253287	      0.00000000	     -2.63952784	     15.23618507	     -0.00000000
      0.76500000	     -6.85800553	     -1.83264407	     -4.53844097	      0.21398090	      0.86632017	      0.19345473	     15.47231921	      5.28242664	      3.72904625	    -18.76528966	      2.51384787	      0.00000000	      0.00000000	     -0.32751609	     35.32841529	     -7.56095553	      2.45147251	    -60.99646098	      8.40809214	     -0.00000000	     -0.00000000	     -1.06458908	    -11.37086029	      4.55345577	      4.95509811	      9.89236897	      7.74769776	     -0.00000000	     -2.36594054	     14.65633395	      0.00000000
      0.77000000	     -6.92306571	     -1.77929277	     -4.74272922	      0.22006944	      0.86659593	      0.19348896	     14.85198604	      5.13052488	      3.59429039	    -18.41750999	      2.53348865	     -0.00000000	     -0.00000000	     -0.32144619	     35.85849998	     -7.60250848	      2.43688457	    -59.97780259	      8.52351939	      0.00000000	     -0.00000000	     -1.04681013	    -11.35500676	      4.55058946	      5.23872978	     10.15767716	      8.33743162	     -0.00000000	     -1.47145260	     14.61783538	      0.00000000
      0.77500000	     -6.94029545	     -1.73369063	     -4.91755287	      0.22615894	      0.86689450	      0.19349798	     14.16264649	      4.97972382	      3.49422641	    -18.02535252	      2.56987478	     -0.00000000	     -0.00000000	     -0.31460175	     36.29485765	     -7.63262985	      2.43933757	    -58.83721564	      8.63599460	      0.00000000	      0.00000000	     -1.02690314	    -11.45733858	      4.52211117	      5.23114113	     10.39032656	      8.67912199	     -0.00000000	     -1.40497694	     13.84993712	     -0.00000000
      0.78000000	     -6.99277667	     -1.71268036	     -5.10310664	      0.23223776	      0.86708369	      0.19349584	     13.53604047	      4.86359055	      3.36251344	    -17.66954944	      2.58936784	      0.00000000	      0.00000000	     -0.30839182	     36.73783409	     -7.69071844	      2.46769503	    -57.64602435	      8.74095870	     -0.00000000	     -0.00000000	     -1.00611293	    -11.46380814	      4.55253457	      5.36872681	     10.57319382	      9.08962393	     -0.00000000	     -1.03121294	     13.32289176	      0.00000000
      0.78500000	     -7.06282262	     -1.71009026	     -5.30760043	      0.23830607	      0.86722094	      0.19348177	     12.93305825	      4.77128879	      3.30926350	    -17.31328740	      2.62974862	     -0.00000000	     -0.00000000	     -0.30217387	     37.15816074	     -7.76858430	      2.47816551	    -56.36236490	      8.82219736	      0.00000000	      0.00000000	     -0.98370884	    -11.49751418	      4.61843930	      5.49711198	     10.73669903	      9.35579963	     -0.00000000	     -0.75700439	     12.43374911	      0.00000000
      0.79000000	     -7.17155580	     -1.71190685	     -5.52775284	      0.24433722	      0.86723944	      0.19347716	     12.41804042	      4.68813097	      3.21428664	    -17.01804100	      2.66069508	     -0.00000000	     -0.00000000	     -0.29702085	     37.57985692	     -7.86189298	      2.49003411	    -55.00410576	      8.88626391	      0.00000000	      0.00000000	     -0.96000275	    -11.47920772	      4.68031994	      5.70850396	     10.94121791	      9.78903507	     -0.00000000	     -0.29468512	     12.11388765	     -0.00000000
      0.79500000	     -7.26137202	     -1.68954493	     -5.71997473	      0.25036963	      0.86723866	      0.19346125	     11.90451515	      4.58306434	      3.10161515	    -16.76738735	      2.67042625	     -0.00000000	     -0.00000000	     -0.29264612	     37.93357183	     -7.91059783	      2.51006870	    -53.53923249	      8.93934656	     -0.00000000	     -0.00000000	     -0.93443589	    -11.49186965	      4.73026884	      5.82646181	     11.09373455	     10.17996979	     -0.00000000	      0.00153255	     11.47067248	      0.00000000
      0.80000000	     -7.31677753	     -1.69631556	     -5.93076529	      0.25642083	      0.86725380	      0.19344679	     11.34703899	      4.48843391	      2.99744474	    -16.48919665	      2.71971067	      0.00000000	      0.00000000	     -0.28779077	     38.19244944	     -8.00007116	      2.54317484	    -51.97636401	      8.99380851	      0.00000000	      0.00000000	     -0.90715869	    -11.55678364	      4.71863470	      5.90062991	     11.13932101	     10.25705247	      0.00000000	      0.03687218	     10.57200174	      0.00000000
      0.80500000	     -7.46168079	     -1.75896863	     -6.15688773	      0.26241645	      0.86711630	      0.19341503	     10.88717554	      4.48783920	      3.00966872	    -16.20181549	      2.76731958	      0.00000000	      0.00000000	     -0.28277503	     38.51565376	     -8.15925725	      2.57831105	    -50.34301249	      9.02233828	      0.00000000	      0.00000000	     -0.87865132	    -11.52565372	      4.89085614	      6.06577565	     11.13400639	     10.28978011	      0.00000000	      0.16403788	      9.64270302	     -0.00000000
      0.81000000	     -7.64497513	     -1.84880543	     -6.40036764	      0.26842948	      0.86687427	      0.19341433	     10.48494312	      4.53798358	      3.00042942	    -15.95492584	      2.76105866	      0.00000000	      0.00000000	     -0.27846599	     38.84216910	     -8.36347557	      2.62227466	    -48.65810588	      9.03921516	     -0.00000000	     -0.00000000	     -0.84924416	    -11.42373491	      5.10085420	      6.31150209	     11.27036995	     10.60265959	     -0.00000000	      0.39352593	      8.98251752	      0.00000000
      0.81500000	     -7.79574268	     -1.85219545	     -6.63834745	      0.27440314	      0.86663347	      0.19339297	     10.12230402	      4.45646592	      2.92722915	    -15.84948253	      2.80593081	      0.00000000	      0.00000000	     -0.27662565	     39.05549663	     -8.46584472	      2.62376917	    -46.82184606	      9.02361077	     -0.00000000	     -0.00000000	     -0.81719538	    -11.38652827	      5.12173290	      6.48379411	     11.45860037	     10.99640868	      0.00000000	      0.49538258	      8.57226832	     -0.00000000
      0.82000000	     -7.95051461	     -2.01049415	     -6.87617151	      0.28037399	      0.86632401	      0.19337801	      9.71267102	      4.60005134	      2.79529011	    -15.62550240	      2.69842010	      0.00000000	      0.00000000	     -0.27271646	     39.27199989	     -8.74092649	      2.68415640	    -44.98339514	      9.00789548	     -0.00000000	     -0.00000000	     -0.78510835	    -11.36871262	      5.43659084	      6.66156481	     11.58128864	     11.48930414	     -0.00000000	      0.67058796	      7.67269913	     -0.00000000
      0.82500000	     -8.15955031	     -2.16065356	     -7.11104684	      0.28633668	      0.86594708	      0.19337273	      9.35754253	      4.72825305	      2.74905882	    -15.40792701	      2.64441003	     -0.00000000	     -0.00000000	     -0.26891906	     39.48260567	     -9.01076239	      2.73672032	    -43.02577105	      8.97136716	     -0.00000000	     -0.00000000	     -0.75094137	    -11.29993632	      5.68664978	      6.87504009	     11.60087291	     11.83295457	      0.00000000	      0.69006493	      6.89542107	      0.00000000
      0.83000000	     -8.39916831	     -2.25649498	     -7.35523765	      0.29231746	      0.86550404	      0.19334503	      9.04647771	      4.78318050	      2.75593492	    -15.20018036	      2.62319707	     -0.00000000	     -0.00000000	     -0.26529319	     39.66088501	     -9.20921620	      2.83261215	    -40.98766441	      8.93456497	      0.00000000	      0.00000000	     -0.71536970	    -11.19013874	      5.91191517	      7.08066110	     11.52223474	     12.00493367	      0.00000000	      0.54970505	      6.04073360	     -0.00000000
      0.83500000	     -8.62979216	     -2.40967216	     -7.60883569	      0.29828417	      0.86504835	      0.19336629	      8.69081068	      4.93392673	      2.83831745	    -14.94477987	      2.57961712	     -0.00000000	     -0.00000000	     -0.26083561	     39.78349861	     -9.48900876	      2.88436039	    -38.86523993	      8.85812382	      0.00000000	      0.00000000	     -0.67832640	    -11.06989742	      6.16563565	      7.28965278	     11.34561319	     12.00369683	     -0.00000000	      0.28243122	      5.07789848	      0.00000000
      0.84000000	     -8.78538633	     -2.51817889	     -7.80945188	      0.30422074	      0.86461800	      0.19332754	      8.34081454	      4.98156842	      2.67245505	    -14.85813225	      2.52865061	     -0.00000000	     -0.00000000	     -0.25932333	     39.77439199	     -9.67537332	      2.90422488	    -36.64705862	      8.72292300	      0.00000000	      0.00000000	     -0.63961183	    -11.12104603	      6.30611285	      7.41122276	     11.52099493	     12.29610862	     -0.00000000	      0.13132162	      4.67688726	     -0.00000000
